<?xml version="1.0" standalone="no"?>
<!DOCTYPE svg PUBLIC "-//W3C//DTD SVG 20010904//EN"
 "http://www.w3.org/TR/2001/REC-SVG-20010904/DTD/svg10.dtd">
<svg version="1.0" xmlns="http://www.w3.org/2000/svg"
 width="4000.000000pt" height="4000.000000pt" viewBox="0 0 4000.000000 4000.000000"
 preserveAspectRatio="xMidYMid meet">
<metadata>
Created by potrace 1.14, written by Peter Selinger 2001-2017
</metadata>
<g transform="translate(0.000000,4000.000000) scale(0.100000,-0.100000)"
fill="#000000" stroke="none">
<path d="M20510 37099 c-800 -29 -1629 -138 -2425 -319 -1347 -307 -2642 -828
-3810 -1532 -1379 -832 -2576 -1898 -3564 -3173 -163 -210 -187 -242 -364
-495 -1244 -1767 -2031 -3830 -2276 -5970 -28 -248 -39 -364 -56 -620 -59
-862 -115 -1422 -216 -2145 -102 -731 -279 -1654 -460 -2395 -196 -807 -456
-1667 -732 -2425 -117 -321 -339 -888 -412 -1050 -99 -222 -126 -352 -106
-511 17 -126 44 -221 96 -327 230 -477 837 -820 1770 -1001 99 -19 203 -38
230 -41 82 -11 82 -11 116 -98 84 -216 186 -719 374 -1842 314 -1871 493
-2750 720 -3530 282 -970 564 -1505 930 -1762 907 -638 2226 -886 3845 -723
288 29 416 46 780 106 1309 215 2926 772 4140 1426 561 303 1136 679 1451 950
31 26 59 48 62 48 6 0 22 -113 42 -295 59 -528 59 -1295 0 -1915 -79 -825
-212 -1616 -504 -2982 -237 -1105 -281 -1329 -272 -1369 11 -47 26 -74 57 -98
103 -81 247 -21 274 114 32 163 245 1178 351 1675 206 962 332 1730 419 2540
79 731 72 1603 -16 2270 -44 330 -69 456 -98 494 -32 42 -82 66 -138 66 -53 0
-80 -16 -184 -111 -860 -785 -2340 -1562 -3929 -2062 -926 -292 -1759 -462
-2670 -544 -287 -26 -1104 -26 -1345 0 -508 55 -831 121 -1205 250 -415 142
-849 383 -1013 562 -296 324 -569 1023 -837 2150 -144 601 -286 1349 -499
2615 -115 684 -143 848 -186 1080 -126 687 -216 1022 -314 1168 -64 96 -101
116 -261 141 -860 138 -1425 377 -1694 716 -114 143 -167 294 -158 450 3 64
12 97 42 165 234 534 565 1431 784 2125 430 1366 765 2919 941 4370 11 94 25
206 30 250 9 77 28 256 50 470 17 169 48 558 64 795 45 664 81 982 166 1485
207 1216 582 2364 1140 3490 636 1282 1438 2390 2461 3400 644 636 1294 1155
2059 1647 600 386 1254 727 1945 1016 930 388 1898 660 2920 821 672 106 1258
151 1965 151 535 0 919 -21 1445 -81 559 -63 1166 -176 1730 -324 1135 -297
2224 -751 3245 -1353 1186 -699 2272 -1610 3180 -2668 1366 -1590 2315 -3508
2755 -5569 109 -510 170 -928 212 -1460 21 -272 24 -1143 5 -1410 -107 -1460
-349 -2578 -1122 -5180 -587 -1976 -848 -3086 -1005 -4280 -52 -394 -90 -888
-105 -1370 -5 -176 -12 -387 -15 -470 -3 -82 -10 -285 -15 -450 -6 -165 -12
-370 -15 -455 -14 -396 -26 -782 -35 -1075 -5 -176 -12 -394 -15 -485 -5 -161
-20 -621 -30 -945 -11 -357 -16 -486 -20 -600 -3 -66 -10 -284 -15 -485 -6
-201 -12 -435 -15 -520 -3 -85 -10 -303 -15 -485 -6 -181 -12 -404 -15 -495
-13 -398 -26 -820 -35 -1145 -5 -192 -12 -426 -15 -520 -3 -93 -10 -327 -15
-520 -10 -351 -13 -463 -30 -1064 -10 -350 -8 -364 43 -419 27 -29 79 -52 117
-52 75 0 155 71 164 144 3 23 10 228 16 456 19 704 29 1087 35 1280 3 102 10
336 15 520 12 418 18 603 30 995 6 171 15 463 20 650 5 187 12 414 15 505 3
91 10 311 15 490 6 179 12 395 15 480 13 367 26 798 35 1100 5 179 12 397 15
485 3 88 10 300 15 470 11 357 17 518 30 920 6 160 15 434 20 610 5 176 12
390 15 475 3 85 10 288 15 450 21 640 45 982 101 1425 110 879 281 1703 598
2882 52 192 323 1136 436 1518 386 1301 592 2064 748 2770 150 674 234 1173
306 1820 73 647 84 1476 30 2140 -90 1114 -407 2396 -874 3545 -833 2048
-2174 3844 -3905 5231 -1199 961 -2548 1697 -4005 2185 -1494 500 -3014 720
-4585 663z"/>
<path d="M13860 28637 c-28 -15 -51 -37 -64 -62 l-21 -40 -3 -2794 c-1 -1855
1 -2806 8 -2831 14 -51 46 -89 94 -111 39 -18 86 -19 925 -19 877 0 885 0 928
21 61 29 86 70 91 144 5 74 -21 119 -88 153 l-44 22 -788 0 -788 0 2 2603 3
2602 6225 0 6225 0 3 -2602 2 -2603 -3023 0 -3024 0 -44 -23 c-74 -39 -107
-127 -78 -204 15 -42 68 -92 109 -103 22 -6 1134 -10 3145 -10 2997 0 3111 1
3150 19 22 10 48 28 58 39 48 54 46 -84 47 2882 0 1791 -3 2797 -10 2819 -11
39 -51 86 -92 107 -23 12 -943 14 -6466 14 l-6439 0 -43 -23z"/>
<path d="M27790 27713 c-37 -14 -74 -49 -91 -87 -18 -40 -19 -109 -19 -1906 0
-1756 1 -1867 18 -1899 9 -19 34 -48 55 -65 34 -27 46 -31 97 -30 48 1 66 6
96 29 20 15 45 47 55 71 19 41 19 97 17 1911 l-3 1868 -24 38 c-12 21 -40 46
-62 57 -36 19 -106 25 -139 13z"/>
<path d="M17989 25207 c-31 -20 -167 -225 -521 -780 -24 -37 -185 -288 -358
-558 -173 -269 -335 -521 -360 -560 -25 -39 -206 -321 -403 -627 -942 -1465
-1147 -1787 -1152 -1814 -15 -65 25 -147 86 -178 38 -20 72 -20 2794 -20 3014
0 2790 -5 2850 59 25 27 30 41 33 99 l3 67 -116 180 c-64 99 -132 203 -150
230 -17 28 -126 196 -240 375 -193 300 -537 836 -659 1025 -29 44 -196 304
-372 578 -175 273 -456 711 -624 972 -168 261 -370 577 -450 701 -165 257
-182 274 -271 274 -42 0 -65 -6 -90 -23z m246 -692 c83 -130 180 -281 216
-338 605 -941 899 -1398 975 -1517 51 -80 219 -341 373 -580 577 -898 681
-1060 681 -1070 0 -7 -825 -10 -2405 -10 -1323 0 -2405 2 -2405 5 0 4 44 73
175 275 23 36 201 313 395 615 195 303 524 816 733 1140 209 325 542 843 740
1153 199 309 364 562 367 562 3 0 73 -106 155 -235z"/>
<path d="M18027 23616 c-51 -19 -83 -50 -102 -100 -14 -36 -15 -151 -13 -987
l3 -946 29 -37 c76 -100 218 -93 280 14 21 35 21 45 21 991 l0 955 -27 41
c-42 63 -124 93 -191 69z"/>
</g>
</svg>
